# xmcd CD database file
#
# Track frame offsets:
#	150
#	21765
#	43123
#	60936
#
# Disc length: 1098 seconds
#
# Revision: 1
# Processed by: cddbd v1.5.1PL0 Copyright (c) Steve Scherf et al.
# Submitted via: CDex 1.51
#
DISCID=28044804
DTITLE=YUI - Tomorrow's way
DYEAR=2005
DGENRE=JPop
TTITLE0=Tomorrow's way
TTITLE1=Last Train
TTITLE2=feel my soul -YUI Acoustic Version-
TTITLE3=Tomorrow's way -Instrumental-
EXTD=YEAR: 2005
EXTT0=
EXTT1=
EXTT2=
EXTT3=
PLAYORDER=
